<svg version="1.0" width="153px" height="153px" viewBox="0 0 153 153" preserveAspectRatio="xMidYMid meet" xmlns="http://www.w3.org/2000/svg">
  <defs></defs>
  <g fill="#3cb4e6" transform="matrix(1, 0, 0, 1, 0.277461, 8.601421)">
    <path d="M 48.343 131.685 C 41.343 130.785 34.834 126.263 31.743 121.285 C 30.51 119.299 29.596 117.026 29.643 108.685 C 29.678 102.426 30.69 98.131 33.243 92.985 L 36.939 85.98 C 25.539 83.58 9.643 68.285 4.243 52.085 C 0.743 41.585 1.543 38.085 8.143 35.385 C 20.043 30.685 49.443 38.285 67.943 50.985 L 72.143 53.885 L 72.143 49.485 C 72.143 42.085 76.043 41.285 80.043 47.885 L 81.843 50.785 L 87.743 41.585 C 99.443 23.085 112.743 8.285 121.943 3.585 C 132.343 -1.715 140.343 5.485 141.743 21.185 C 142.843 32.585 137.643 48.985 130.243 58.185 L 127.143 62.085 L 132.843 65.785 C 145.943 73.985 151.743 84.285 148.743 93.985 C 145.943 103.485 136.643 112.985 128.443 114.885 C 119.943 116.785 109.843 112.185 98.643 101.085 C 94.543 96.985 91.108 93.855 91.003 94.007 C 90.91 94.141 91.743 97.385 92.543 99.885 C 94.443 106.085 95.643 117.785 94.443 117.785 C 93.043 117.785 88.822 107.189 87.043 100.985 C 86.223 98.125 85.313 95.815 85.143 95.785 C 84.99 95.758 83.743 99.185 82.743 103.385 C 77.443 126.285 67.743 134.185 48.343 131.685 Z"></path>
  </g>
</svg>